<?xml version="1.0" standalone="no"?>
<!DOCTYPE svg PUBLIC "-//W3C//DTD SVG 20010904//EN"
 "http://www.w3.org/TR/2001/REC-SVG-20010904/DTD/svg10.dtd">
<svg version="1.0" xmlns="http://www.w3.org/2000/svg"
 width="575.000000pt" height="575.000000pt" viewBox="0 0 575.000000 575.000000"
 preserveAspectRatio="xMidYMid meet">
<metadata>
Created by potrace 1.14, written by Peter Selinger 2001-2017
</metadata>
<g transform="translate(0.000000,575.000000) scale(0.100000,-0.100000)"
fill="#000000" stroke="none">
<path d="M2557 5699 c-177 -40 -351 -266 -384 -501 -10 -64 -10 -277 -2 -333
27 -178 106 -359 232 -535 69 -96 276 -309 326 -334 66 -34 77 14 36 154 -61
208 -67 448 -19 688 9 41 19 84 24 98 9 23 10 23 46 8 92 -39 239 -7 322 69
66 62 87 108 87 197 -1 65 -5 83 -33 138 -19 37 -61 92 -100 131 -173 173
-374 256 -535 220z"/>
<path d="M1711 5271 c-59 -16 -85 -113 -40 -151 49 -43 138 -13 140 48 2 52
-2 67 -27 90 -26 23 -33 24 -73 13z"/>
<path d="M3606 5231 c-34 -21 -56 -63 -56 -109 0 -33 6 -45 31 -66 42 -36 110
-36 144 -1 14 13 26 32 26 42 1 10 3 32 4 48 5 83 -76 131 -149 86z"/>
<path d="M1802 4955 c-79 -24 -141 -78 -173 -151 -77 -173 66 -319 397 -403
148 -38 165 -35 157 27 -13 107 -137 430 -184 480 -50 54 -119 70 -197 47z"/>
<path d="M3107 4838 c-133 -28 -210 -130 -240 -321 -17 -104 -13 -319 7 -424
3 -12 8 -42 11 -68 10 -61 26 -76 67 -64 36 10 112 58 178 114 178 148 332
300 360 355 29 57 30 140 2 203 -62 139 -241 235 -385 205z"/>
<path d="M3823 4819 c-47 -9 -100 -53 -139 -115 -19 -29 -34 -56 -34 -60 0 -3
-7 -20 -15 -37 -18 -40 -65 -215 -65 -244 0 -20 5 -23 39 -23 51 0 212 54 362
122 88 39 122 133 80 223 -45 97 -139 153 -228 134z"/>
<path d="M1393 4368 c-256 -21 -396 -122 -381 -276 4 -45 69 -192 119 -269 16
-26 18 -34 7 -38 -136 -47 -206 -82 -313 -156 -147 -101 -277 -259 -344 -419
-59 -139 -58 -235 4 -307 18 -21 40 -54 48 -74 34 -81 139 -132 269 -130 39 0
73 3 76 5 4 2 30 7 57 10 28 4 68 11 90 16 59 14 183 12 240 -4 74 -21 117
-41 187 -90 276 -192 605 -247 894 -150 145 48 293 141 429 268 78 73 132 67
230 -25 160 -152 355 -248 575 -284 48 -8 186 -8 240 -1 174 26 337 92 503
205 40 27 95 57 122 67 74 26 227 27 345 3 222 -46 367 -11 422 100 14 26 37
61 52 77 15 16 33 52 41 79 22 78 11 140 -47 264 -110 238 -315 422 -585 526
l-72 28 18 26 c10 14 42 73 70 131 72 148 72 213 0 295 -53 59 -165 106 -289
120 -96 11 -330 5 -390 -10 -8 -2 -35 -7 -60 -10 -120 -17 -286 -68 -417 -130
-252 -119 -475 -314 -623 -546 -30 -46 -35 -50 -45 -34 -70 120 -205 275 -329
379 -236 199 -562 327 -891 351 -140 10 -164 10 -252 3z m592 -785 c104 -23
196 -65 310 -141 71 -47 248 -216 299 -284 28 -37 28 -38 11 -65 -25 -37 -65
-71 -146 -121 -85 -52 -154 -80 -242 -97 -221 -42 -460 15 -791 188 -61 32
-148 75 -193 97 -94 46 -96 50 -57 127 49 99 181 193 359 257 183 65 296 75
450 39z m2030 12 c62 -7 234 -64 312 -103 135 -69 240 -174 257 -257 l7 -31
-238 -120 c-220 -112 -406 -187 -496 -201 -17 -3 -52 -9 -77 -13 -86 -17 -247
-5 -335 24 -136 46 -282 141 -315 204 -10 21 -7 29 29 75 40 52 160 174 216
220 127 104 316 190 445 204 30 3 56 7 58 8 3 3 56 -1 137 -10z"/>
<path d="M598 4106 c-42 -29 -66 -63 -77 -113 -17 -80 35 -140 130 -150 46 -4
58 -2 83 18 53 42 72 132 41 205 -25 61 -117 81 -177 40z"/>
<path d="M4962 4089 c-39 -12 -87 -73 -96 -125 -16 -82 35 -142 127 -150 90
-8 136 37 138 137 1 70 -13 104 -53 129 -35 21 -64 24 -116 9z"/>
<path d="M767 2284 c-1 -1 -24 -5 -52 -9 -64 -8 -172 -46 -230 -80 -74 -43
-156 -133 -197 -216 -58 -116 -80 -225 -80 -404 0 -183 17 -269 73 -384 122
-247 381 -356 672 -281 155 39 279 134 338 258 l31 63 27 -44 c91 -143 248
-202 452 -172 107 16 224 69 279 126 33 35 90 126 90 144 0 8 4 15 9 15 4 0 9
-28 10 -62 3 -116 11 -135 63 -149 70 -18 195 6 227 45 9 10 12 42 9 100 -2
48 -2 86 0 86 1 0 64 -38 139 -85 190 -120 183 -117 221 -98 19 9 46 38 66 69
l33 54 18 -27 c41 -63 119 -110 226 -138 183 -48 328 5 392 142 l24 52 21 -45
c46 -95 138 -169 251 -204 225 -70 433 -23 534 121 l35 51 21 -47 c12 -26 21
-51 21 -56 0 -5 27 -36 59 -69 77 -78 151 -113 311 -146 54 -11 176 -5 220 11
101 36 178 112 216 215 20 54 28 244 13 310 -14 62 -65 162 -105 204 -19 20
-32 36 -29 36 3 0 -11 15 -31 33 -20 17 -46 41 -58 52 -11 12 -43 36 -69 54
-87 60 -119 92 -106 107 18 22 84 17 114 -9 21 -18 27 -32 28 -66 1 -33 6 -47
24 -58 56 -37 278 -58 302 -29 10 11 12 48 9 133 -3 101 -8 126 -30 173 -68
146 -200 218 -408 226 -149 5 -244 -24 -318 -97 -68 -67 -103 -184 -97 -322 8
-159 43 -214 210 -322 142 -92 188 -134 205 -184 15 -46 4 -70 -33 -69 -79 2
-127 52 -127 132 0 37 -5 53 -21 67 -12 10 -26 16 -32 12 -5 -3 -7 -2 -4 4 8
12 -96 39 -112 29 -6 -4 -11 -3 -11 3 0 5 -17 9 -38 8 l-38 -2 0 100 c-1 115
-15 187 -54 266 -30 61 -78 121 -90 114 -5 -3 -11 2 -14 10 -9 25 -121 72
-199 86 -142 23 -317 -6 -380 -65 -14 -13 -28 -22 -30 -20 -3 4 -43 -40 -84
-95 -7 -9 -13 -11 -13 -6 -7 63 -41 133 -89 182 -95 98 -329 130 -461 63 -92
-47 -136 -135 -139 -275 -3 -139 30 -216 117 -271 43 -27 55 -41 26 -30 -26
10 -142 19 -167 12 -31 -7 -43 -37 -46 -111 -2 -33 -4 -62 -6 -64 -2 -2 -17 6
-33 18 -17 12 -35 21 -41 21 -6 0 -11 3 -11 8 0 4 -13 13 -30 20 l-30 14 39
46 c22 26 52 72 68 102 26 51 28 65 30 186 3 146 -8 202 -52 260 -58 76 -141
116 -240 116 -61 -1 -81 -5 -137 -30 -39 -17 -46 -17 -65 -5 -42 28 -198 18
-243 -16 -24 -18 -25 -21 -23 -137 2 -66 5 -129 8 -141 6 -28 -11 -31 -20 -4
-3 10 -16 30 -28 44 -12 13 -27 33 -34 43 -6 11 -16 18 -23 16 -6 -1 -9 2 -6
7 8 13 -75 69 -138 94 -65 25 -202 33 -292 18 -178 -31 -294 -134 -339 -301
l-12 -45 -1 45 c0 79 -58 232 -116 305 -80 102 -175 152 -299 158 -38 1 -69 2
-70 1z m3638 -294 c3 -5 1 -10 -4 -10 -6 0 -11 5 -11 10 0 6 2 10 4 10 3 0 8
-4 11 -10z m-1038 -95 c19 -14 36 -59 25 -69 -5 -6 -63 32 -73 47 -4 5 -11 7
-17 3 -8 -5 -9 10 -3 32 3 8 50 0 68 -13z m-747 -30 c26 -31 -23 -102 -108
-157 -61 -41 -57 -46 -66 70 -3 38 0 45 28 66 56 42 121 51 146 21z m-1786
-16 c35 -27 62 -83 69 -137 2 -24 9 -48 15 -54 46 -46 287 -1 321 59 7 13 10
-16 10 -98 0 -64 4 -124 7 -134 8 -19 8 -19 -51 -1 -5 2 -18 6 -28 11 -10 4
-42 5 -72 3 -64 -5 -93 -28 -126 -96 -41 -83 -75 -106 -174 -115 -63 -6 -136
35 -181 103 -95 144 -39 404 101 466 43 19 79 17 109 -7z m956 -75 c76 -45
138 -201 117 -294 -1 -8 -9 -25 -15 -37 -7 -13 -10 -23 -7 -23 11 0 -60 -66
-80 -74 -29 -13 -115 -24 -109 -14 5 7 -13 12 -43 11 -7 -1 -10 3 -7 8 3 5 0
9 -5 9 -6 0 -26 24 -45 53 -52 78 -72 217 -42 289 41 97 141 128 236 72z
m2370 7 c20 -10 44 -36 58 -62 21 -39 23 -53 18 -124 -6 -96 -7 -101 -28 -142
-12 -23 -13 -34 -4 -44 8 -9 8 -10 -2 -5 -8 5 -25 -5 -45 -27 -18 -20 -35 -35
-40 -35 -4 0 -21 -3 -37 -7 -53 -12 -104 4 -147 43 -22 20 -39 39 -40 42 0 3
-6 23 -13 44 -24 75 14 220 73 278 63 60 141 75 207 39z m-597 -21 l39 0 -7
-52 c-4 -29 -9 -60 -11 -68 -1 -8 -3 -19 -4 -25 0 -5 -10 7 -21 28 -11 21 -27
41 -34 44 -8 3 -15 11 -15 18 0 7 -3 15 -7 17 -5 2 -19 15 -31 30 l-24 26 39
-9 c21 -5 55 -9 76 -9z m-301 -240 c29 -27 49 -55 51 -70 2 -23 -1 -25 -37
-24 -53 2 -86 41 -84 98 1 30 -4 43 -23 58 l-24 20 34 -19 c19 -10 56 -38 83
-63z"/>
<path d="M2532 923 c-58 -28 -86 -87 -96 -203 -5 -55 -19 -466 -19 -550 1 -86
-4 -81 66 -78 l62 3 0 124 0 125 43 3 c40 2 42 1 43 -25 1 -41 10 -144 14
-167 2 -11 4 -23 4 -27 1 -5 24 -8 51 -8 42 0 52 3 58 21 9 23 7 496 -2 614
-6 80 -39 153 -77 172 -34 18 -108 16 -147 -4z m84 -228 c12 -19 15 -40 11
-97 -3 -40 -6 -74 -6 -75 -1 -2 -16 -3 -35 -3 l-33 0 2 85 c4 109 26 143 61
90z"/>
<path d="M187 914 c-3 -3 -1 -19 5 -35 15 -43 5 -45 -29 -6 -26 29 -32 32 -57
24 -23 -8 -27 -13 -21 -34 5 -23 3 -25 -19 -21 -28 6 -36 -7 -36 -53 0 -28 24
-89 36 -89 2 0 22 9 44 20 22 11 44 20 50 20 15 0 -8 -41 -32 -58 -10 -7 -18
-17 -18 -21 0 -22 94 -51 192 -60 57 -6 126 -17 153 -25 114 -35 238 -135 285
-230 55 -115 75 -35 31 124 -42 147 -175 307 -312 373 -100 48 -254 88 -272
71z"/>
<path d="M3163 914 c-4 -1 -20 -5 -35 -8 -27 -6 -28 -8 -28 -76 0 -97 92 -540
136 -656 l16 -42 65 3 c36 2 69 7 73 12 9 10 83 316 104 433 9 47 18 99 22
115 11 56 15 173 5 179 -20 13 -120 14 -129 3 -5 -7 -21 -75 -37 -152 -15 -77
-29 -147 -30 -155 -2 -8 -4 -21 -4 -29 -2 -32 -11 -1 -25 89 -8 52 -17 115
-21 140 -7 53 -15 99 -21 121 -4 15 -62 29 -91 23z"/>
<path d="M5480 909 c-71 -8 -191 -55 -263 -103 -83 -55 -160 -144 -207 -239
-81 -164 -88 -379 -8 -224 78 149 228 238 423 253 78 6 181 32 196 50 10 12 7
20 -14 42 -25 25 -35 52 -22 52 3 0 23 -9 45 -20 22 -11 42 -20 44 -20 13 0
36 62 36 94 0 37 -14 52 -43 48 -14 -3 -17 1 -12 21 5 18 1 26 -17 34 -20 9
-28 6 -62 -26 -38 -35 -38 -36 -32 -9 3 14 8 33 11 40 6 16 4 16 -75 7z"/>
<path d="M2078 892 c-39 -5 -42 -24 -34 -230 13 -333 25 -542 31 -552 6 -9 15
-8 95 9 25 5 75 15 112 21 37 7 72 18 79 26 14 18 8 169 -8 185 -9 9 -27 9
-78 -1 -36 -7 -68 -11 -70 -9 -3 4 -9 111 -20 384 -3 77 -8 147 -11 156 -4 16
-30 18 -96 11z"/>
<path d="M1470 870 c-137 -23 -128 -15 -124 -107 2 -43 6 -87 9 -99 2 -12 7
-39 11 -60 3 -21 18 -120 34 -219 16 -99 31 -198 35 -220 12 -85 17 -104 32
-110 15 -5 81 4 188 26 28 6 60 12 72 15 19 4 21 9 18 66 -3 87 -14 126 -36
133 -10 4 -23 4 -27 1 -5 -3 -19 -7 -33 -10 -13 -2 -39 -8 -56 -12 -18 -3 -33
-3 -34 2 0 5 -2 21 -4 36 -4 29 -6 28 81 48 l52 12 -3 52 c-4 70 -23 136 -38
136 -7 0 -38 -6 -69 -14 l-57 -13 -10 49 c-17 77 -15 88 15 88 15 0 44 5 65
12 l39 11 -4 76 c-4 75 -12 110 -25 112 -3 0 -13 2 -21 3 -8 1 -58 -5 -110
-14z"/>
<path d="M3629 876 l-34 -11 -2 -341 c-1 -188 1 -354 6 -369 6 -26 11 -28 65
-29 37 -1 61 3 68 12 14 17 24 711 10 731 -12 17 -70 21 -113 7z"/>
<path d="M3841 881 c-12 -8 -19 -55 -26 -191 -3 -63 -8 -133 -10 -155 -14
-151 -24 -404 -17 -424 4 -10 20 -12 71 -7 36 3 97 9 135 11 39 3 76 11 83 17
10 8 13 35 11 102 l-3 91 -77 -2 c-74 -3 -77 -2 -73 20 2 12 6 69 10 127 3 58
8 132 11 165 9 108 12 223 5 233 -7 11 -105 22 -120 13z"/>
<path d="M4199 853 c0 -5 -2 -15 -3 -23 -4 -21 -18 -146 -21 -198 -2 -23 -6
-66 -9 -95 -3 -28 -8 -83 -11 -122 -3 -38 -8 -87 -11 -107 -9 -71 -12 -204 -5
-217 6 -9 26 -11 67 -7 32 2 91 5 130 5 98 1 104 8 106 108 1 106 -4 112 -88
105 l-66 -5 6 69 c7 65 12 115 21 194 17 146 22 271 11 288 -8 13 -126 17
-127 5z"/>
<path d="M923 843 c-20 -4 -23 -11 -24 -56 -1 -29 -1 -54 -1 -57 2 -36 14
-182 17 -205 2 -16 6 -59 10 -95 3 -36 8 -85 10 -110 2 -25 7 -74 10 -110 6
-75 16 -164 18 -167 14 -13 151 5 202 27 59 27 100 72 126 137 19 50 22 77 22
203 1 120 -3 157 -21 215 -38 125 -86 178 -192 209 -50 15 -126 19 -177 9z
m230 -314 c23 -80 29 -175 13 -212 -7 -18 -27 -40 -45 -50 l-31 -18 -1 33 c0
18 -2 40 -4 48 -4 22 -14 133 -20 241 l-6 94 39 -41 c26 -27 45 -59 55 -95z"/>
<path d="M4707 833 c-62 -9 -123 -103 -143 -218 -7 -44 -24 -137 -28 -160 -3
-18 -11 -65 -22 -135 -3 -14 -12 -63 -20 -110 -15 -80 -22 -186 -13 -194 9 -8
118 -15 123 -8 2 4 8 46 12 92 3 47 8 92 10 100 1 8 3 23 3 33 1 16 7 18 44
13 23 -3 42 -5 42 -5 0 -1 -1 -49 -3 -107 -2 -59 0 -110 5 -115 15 -14 103
-20 104 -6 0 6 2 21 4 32 3 11 9 56 15 100 6 44 13 91 15 105 2 14 7 48 10 75
3 28 8 68 12 90 11 77 13 101 14 203 1 108 -10 153 -45 185 -26 23 -88 37
-139 30z m49 -273 c-28 -148 -25 -140 -58 -140 l-31 0 7 48 c4 26 8 56 10 67
3 11 5 26 5 33 1 6 11 22 23 34 20 20 21 21 35 2 7 -10 11 -30 9 -44z"/>
</g>
</svg>
