<?xml version="1.0" standalone="no"?>
<!DOCTYPE svg PUBLIC "-//W3C//DTD SVG 20010904//EN"
 "http://www.w3.org/TR/2001/REC-SVG-20010904/DTD/svg10.dtd">
<svg version="1.0" xmlns="http://www.w3.org/2000/svg"
 width="575.000000pt" height="575.000000pt" viewBox="0 0 575.000000 575.000000"
 preserveAspectRatio="xMidYMid meet">
<metadata>
Created by potrace 1.14, written by Peter Selinger 2001-2017
</metadata>
<g transform="translate(0.000000,575.000000) scale(0.100000,-0.100000)"
fill="#000000" stroke="none">
<path d="M2549 5696 c-175 -47 -331 -249 -373 -484 -21 -115 -15 -324 14 -436
60 -237 179 -435 390 -647 123 -125 171 -159 196 -138 18 15 18 67 0 121 -70
205 -80 474 -30 726 9 41 19 84 24 98 9 23 10 23 45 8 99 -41 240 -9 328 75
131 124 111 297 -53 461 -174 175 -383 259 -541 216z"/>
<path d="M1711 5271 c-59 -16 -85 -113 -40 -151 26 -23 85 -26 112 -5 43 32
37 133 -8 153 -28 13 -29 13 -64 3z"/>
<path d="M3608 5232 c-33 -20 -61 -75 -60 -117 2 -74 122 -116 177 -60 14 13
26 32 26 42 1 10 3 32 4 48 5 83 -76 132 -147 87z"/>
<path d="M1782 4948 c-148 -55 -218 -231 -137 -344 53 -75 161 -138 310 -183
99 -30 208 -52 217 -43 26 26 7 117 -66 304 -79 205 -94 231 -154 262 -49 25
-109 27 -170 4z"/>
<path d="M3107 4838 c-134 -28 -210 -130 -240 -321 -17 -103 -13 -319 7 -424
3 -12 8 -42 11 -68 10 -61 26 -76 67 -64 36 10 112 58 178 114 178 148 332
300 360 355 48 94 19 221 -70 304 -90 84 -213 126 -313 104z"/>
<path d="M3823 4819 c-38 -8 -93 -47 -122 -87 -53 -75 -128 -285 -126 -357 0
-26 4 -30 30 -33 67 -8 386 113 426 161 49 58 48 145 -1 218 -51 76 -131 114
-207 98z"/>
<path d="M1387 4368 c-252 -23 -390 -124 -375 -276 4 -45 69 -192 118 -268
l21 -32 -71 -27 c-161 -62 -309 -159 -418 -274 -62 -66 -145 -195 -181 -281
-61 -143 -58 -232 10 -315 21 -26 39 -53 39 -61 0 -20 58 -82 94 -101 80 -43
219 -43 401 -2 60 13 183 11 240 -5 75 -21 117 -41 188 -91 271 -189 607 -245
893 -149 145 48 293 141 429 268 75 70 146 64 224 -20 14 -14 51 -46 83 -71
386 -297 817 -302 1241 -14 40 27 95 57 122 67 74 26 227 27 345 3 222 -46
367 -11 422 100 14 26 37 61 52 77 15 16 33 52 41 79 22 78 11 140 -47 264
-111 240 -325 430 -595 530 l-63 23 19 27 c10 14 42 73 70 131 72 148 72 213
0 295 -53 59 -165 106 -289 120 -96 11 -330 5 -390 -10 -8 -2 -35 -7 -60 -10
-25 -4 -81 -15 -125 -26 -381 -95 -709 -327 -915 -650 -30 -46 -35 -50 -45
-34 -37 63 -135 191 -192 251 -181 189 -382 317 -623 397 -206 69 -468 103
-663 85z m598 -785 c104 -23 195 -65 310 -141 70 -46 247 -214 299 -284 28
-37 28 -38 10 -65 -50 -77 -253 -196 -374 -218 -77 -14 -227 -13 -310 1 -147
26 -270 73 -485 182 -71 37 -165 84 -207 105 -53 26 -78 44 -78 56 0 31 50
118 89 154 117 108 347 208 516 226 80 8 145 4 230 -16z m2023 13 c64 -7 238
-63 319 -104 135 -69 240 -174 257 -257 l7 -31 -238 -120 c-220 -112 -406
-187 -496 -201 -17 -3 -52 -9 -77 -13 -47 -9 -224 -6 -273 4 -186 41 -429 214
-376 269 8 8 41 46 74 83 33 38 88 94 123 124 35 30 69 60 75 65 30 26 149 95
212 123 85 37 133 50 205 58 30 4 56 7 57 8 3 3 53 -1 131 -8z"/>
<path d="M595 4106 c-64 -36 -97 -146 -61 -200 24 -38 57 -56 114 -63 38 -4
57 -1 81 13 55 32 78 135 46 210 -26 62 -110 80 -180 40z"/>
<path d="M4962 4089 c-20 -6 -43 -25 -61 -50 -61 -83 -47 -174 31 -209 113
-51 198 1 199 122 1 29 -4 65 -10 80 -20 52 -89 77 -159 57z"/>
<path d="M767 2284 c-1 -1 -24 -5 -52 -9 -63 -8 -172 -45 -227 -78 -84 -49
-170 -146 -211 -237 -38 -85 -46 -110 -34 -110 9 0 9 -2 1 -8 -21 -13 -35
-120 -36 -264 -1 -215 25 -323 109 -450 134 -204 372 -286 636 -218 155 39
279 134 338 258 l31 63 28 -44 c50 -79 127 -137 220 -164 157 -46 408 12 510
118 33 35 90 126 90 144 0 8 4 15 8 15 5 0 10 -21 11 -47 3 -76 8 -117 16
-135 22 -53 227 -41 274 16 9 10 12 42 9 100 -2 48 -2 86 0 86 1 0 64 -38 139
-85 192 -121 184 -118 222 -97 18 10 47 41 65 70 l33 53 18 -28 c76 -118 312
-189 461 -139 69 23 117 66 153 136 l30 61 19 -45 c42 -93 136 -171 252 -207
224 -70 432 -22 533 122 l35 51 21 -47 c12 -26 21 -51 21 -56 0 -5 26 -35 58
-67 98 -100 237 -151 418 -153 119 -2 219 49 282 141 50 72 64 124 68 246 4
123 -9 192 -52 272 -32 60 -79 114 -89 104 -5 -4 -5 -2 -1 5 4 7 -8 26 -29 45
-20 18 -46 42 -58 53 -12 12 -44 36 -70 54 -87 60 -119 92 -106 107 18 22 84
17 114 -8 20 -18 27 -33 28 -67 1 -33 7 -47 25 -59 55 -36 277 -57 301 -28 10
11 12 48 9 133 -3 101 -8 126 -30 173 -64 137 -192 212 -383 226 -188 14 -335
-48 -396 -168 -46 -91 -58 -275 -24 -377 24 -72 66 -115 205 -206 163 -107
216 -168 191 -221 -12 -26 -51 -29 -99 -7 -41 20 -62 59 -62 119 0 35 -5 51
-21 65 -12 10 -26 16 -32 12 -5 -3 -7 -2 -4 4 8 12 -95 38 -118 30 -9 -4 -14
-3 -10 2 3 5 -12 9 -32 8 l-38 -2 -1 100 c-2 217 -73 358 -217 431 -139 71
-371 70 -493 -1 -42 -25 -104 -82 -137 -125 -9 -13 -18 -19 -18 -12 -1 7 -2
15 -3 20 -1 4 -6 22 -10 40 -4 17 -12 32 -18 32 -6 0 -8 3 -5 6 8 8 -27 59
-63 93 -97 92 -333 115 -460 44 -88 -48 -126 -128 -129 -268 -3 -139 30 -216
117 -271 43 -27 55 -41 26 -30 -26 10 -142 19 -167 12 -31 -7 -43 -37 -46
-111 -2 -33 -4 -62 -6 -64 -2 -2 -17 6 -33 18 -17 12 -35 21 -41 21 -6 0 -11
3 -11 8 0 4 -13 13 -30 20 l-30 14 39 46 c21 26 52 72 67 102 26 51 29 65 31
186 3 147 -8 202 -52 260 -58 76 -141 116 -240 116 -61 -1 -81 -5 -137 -30
-39 -17 -46 -17 -65 -5 -42 28 -198 18 -243 -16 -24 -18 -25 -21 -23 -137 2
-66 5 -129 8 -141 8 -36 -9 -27 -34 17 -12 22 -25 40 -29 40 -4 0 -12 10 -17
23 -6 12 -17 21 -24 19 -7 -1 -10 2 -7 7 8 13 -75 69 -138 94 -65 25 -202 33
-292 18 -177 -31 -294 -134 -339 -301 l-13 -45 0 45 c0 47 -28 143 -64 220
-51 108 -146 195 -250 229 -27 8 -165 20 -171 15z m2600 -389 c21 -15 36 -62
23 -70 -4 -3 -13 2 -20 11 -7 8 -19 13 -27 10 -8 -3 -12 -2 -9 3 3 5 -6 16
-19 25 -14 9 -23 21 -20 26 9 15 48 12 72 -5z m-747 -30 c14 -17 3 -59 -20
-80 -10 -9 -16 -24 -13 -33 4 -13 3 -14 -5 -3 -8 11 -11 11 -18 0 -11 -17 -89
-69 -104 -69 -5 0 -10 15 -11 33 0 17 -2 49 -3 70 -2 33 2 42 28 62 56 41 121
50 146 20z m-1786 -16 c35 -27 62 -83 69 -137 2 -24 9 -48 15 -54 45 -45 275
-5 317 55 12 18 14 6 14 -100 0 -66 3 -127 6 -134 4 -10 -1 -15 -14 -15 -11 0
-18 3 -15 7 7 12 -56 29 -103 29 -70 0 -106 -23 -139 -87 -49 -97 -77 -117
-179 -126 -63 -6 -136 35 -181 103 -95 144 -39 404 101 466 43 19 79 17 109
-7z m956 -75 c93 -55 151 -242 102 -330 -6 -12 -8 -24 -5 -28 3 -3 1 -6 -5 -6
-7 0 -12 -8 -12 -17 0 -9 -3 -13 -6 -10 -4 4 -14 -1 -23 -11 -9 -10 -25 -22
-36 -27 -30 -12 -115 -22 -109 -13 5 8 -14 12 -51 10 -11 0 -15 2 -8 4 9 4 5
13 -11 29 -55 55 -86 144 -86 251 0 143 128 219 250 148z m2370 7 c20 -10 44
-36 58 -62 21 -39 23 -53 19 -130 -3 -47 -12 -101 -20 -120 -7 -19 -15 -37
-15 -42 -1 -4 -17 -23 -36 -41 -19 -19 -33 -36 -31 -38 5 -5 -47 -11 -100 -11
-38 0 -59 6 -89 26 -21 15 -35 27 -31 27 5 0 1 8 -7 18 -46 52 -48 162 -3 256
57 121 160 168 255 117z m-645 -20 c3 -1 23 -1 46 -1 l41 0 -7 -52 c-4 -29 -9
-60 -11 -68 -1 -8 -3 -19 -4 -25 0 -5 -8 4 -17 20 -21 40 -44 66 -54 60 -4 -3
-11 0 -15 6 -4 8 -3 9 4 5 23 -14 12 8 -20 41 l-32 33 32 -10 c18 -5 35 -9 37
-9z m-253 -241 c29 -27 49 -55 51 -70 2 -23 -1 -25 -37 -24 -53 2 -86 41 -84
98 1 30 -4 43 -23 58 l-24 20 34 -19 c19 -10 56 -38 83 -63z"/>
<path d="M2532 923 c-58 -28 -85 -85 -96 -203 -5 -54 -19 -461 -19 -550 1 -86
-4 -81 66 -78 l62 3 0 124 0 125 43 3 c40 2 42 1 43 -25 1 -41 10 -144 14
-167 2 -11 4 -23 4 -27 1 -5 24 -8 51 -8 42 0 52 3 58 21 9 22 7 497 -2 614
-6 80 -39 153 -77 172 -34 18 -108 16 -147 -4z m79 -220 c14 -15 22 -142 11
-170 -2 -7 -19 -13 -37 -13 l-32 0 2 85 c3 103 23 138 56 98z"/>
<path d="M187 914 c-3 -4 -2 -17 4 -31 17 -45 9 -47 -28 -11 -37 36 -39 36
-67 21 -21 -11 -25 -18 -17 -26 18 -18 12 -30 -13 -25 -28 6 -36 -7 -36 -53 0
-28 24 -89 36 -89 2 0 22 9 44 20 22 11 44 20 50 20 15 0 -8 -41 -32 -58 -10
-7 -18 -17 -18 -21 0 -19 94 -51 163 -57 116 -9 177 -23 257 -61 87 -42 174
-123 209 -195 56 -117 77 -38 32 122 -42 147 -175 307 -312 373 -100 48 -254
88 -272 71z"/>
<path d="M5495 912 c-116 -8 -266 -83 -366 -182 -105 -105 -161 -218 -183
-372 -12 -82 17 -90 57 -15 78 149 226 238 422 253 84 6 180 31 196 51 10 11
7 19 -14 41 -25 25 -35 52 -22 52 3 0 23 -9 45 -20 22 -11 42 -20 44 -20 13 0
36 62 36 94 0 37 -14 52 -42 48 -20 -4 -23 9 -7 25 8 8 4 15 -17 26 -28 15
-30 15 -68 -21 -38 -36 -38 -36 -32 -10 3 14 8 33 11 40 3 8 0 14 -7 14 -7 -1
-31 -2 -53 -4z"/>
<path d="M3105 902 c-13 -14 -2 -155 21 -270 34 -172 91 -408 110 -458 l16
-41 65 3 c36 1 68 6 73 11 6 7 16 40 34 113 7 26 58 253 62 275 2 11 8 46 14
77 6 32 13 70 16 85 10 48 15 171 7 176 -22 14 -109 17 -124 5 -11 -9 -27 -70
-49 -181 -18 -92 -34 -166 -36 -165 -3 3 -28 159 -39 238 -3 25 -8 59 -11 75
-12 68 -10 66 -85 64 -38 -1 -71 -4 -74 -7z"/>
<path d="M2078 892 c-17 -2 -30 -11 -34 -24 -10 -33 19 -738 31 -758 5 -8 39
-5 75 5 8 3 55 12 104 20 50 9 96 21 103 27 16 13 18 134 3 173 -11 29 -17 29
-122 9 l-38 -7 -1 44 c0 24 -2 67 -4 94 -1 28 -6 128 -9 223 -4 95 -9 178 -12
186 -5 12 -36 15 -96 8z"/>
<path d="M1558 885 c-3 -3 -42 -9 -128 -21 -86 -12 -88 -14 -84 -86 5 -88 7
-104 44 -328 11 -63 22 -131 24 -150 11 -84 37 -233 42 -242 8 -12 114 3 271
37 19 5 21 10 18 67 -3 79 -14 125 -30 132 -7 2 -43 -2 -80 -11 -36 -8 -69
-13 -71 -10 -3 3 -7 19 -9 36 -4 27 0 32 23 37 15 3 45 11 67 17 l40 12 -1 50
c-2 64 -21 135 -37 135 -7 0 -38 -6 -69 -14 l-57 -13 -10 49 c-17 78 -15 88
19 89 17 1 33 2 38 4 68 18 63 10 58 94 -4 75 -12 110 -25 112 -3 0 -14 2 -23
4 -9 2 -18 2 -20 0z"/>
<path d="M3629 876 l-34 -11 -2 -341 c-1 -188 1 -354 6 -369 6 -26 11 -28 65
-29 37 -1 61 3 68 12 14 17 24 711 10 731 -12 17 -70 21 -113 7z"/>
<path d="M3841 881 c-11 -7 -18 -56 -26 -181 -3 -52 -8 -122 -10 -155 -20
-302 -24 -414 -17 -434 4 -10 20 -12 71 -7 36 3 97 9 135 11 39 3 76 11 83 17
10 8 13 35 11 102 l-3 91 -75 0 c-62 0 -75 3 -74 16 1 8 4 67 8 130 4 63 9
137 12 164 9 97 12 223 5 233 -7 11 -105 22 -120 13z"/>
<path d="M4199 853 c0 -5 -2 -17 -4 -28 -5 -23 -19 -167 -30 -295 -9 -103 -15
-171 -21 -220 -10 -84 -12 -206 -5 -219 5 -8 26 -11 67 -7 32 2 91 5 130 5 98
1 104 8 106 108 1 106 -4 112 -88 105 l-66 -5 6 69 c7 65 12 115 21 194 18
156 23 272 12 288 -10 13 -126 18 -128 5z"/>
<path d="M923 843 c-20 -4 -23 -11 -24 -56 -1 -29 -1 -54 -1 -57 3 -52 17
-207 27 -295 2 -22 7 -71 10 -110 3 -38 8 -90 11 -115 2 -25 7 -72 9 -104 3
-33 6 -60 8 -62 15 -14 147 3 201 27 59 26 102 72 127 137 19 49 22 77 22 202
1 120 -3 157 -21 215 -38 125 -86 178 -192 209 -50 15 -126 19 -177 9z m230
-314 c9 -30 19 -82 22 -116 7 -75 -12 -126 -56 -149 l-29 -15 -1 33 c0 18 -2
40 -4 48 -4 22 -14 133 -20 241 l-6 94 39 -41 c26 -27 45 -59 55 -95z"/>
<path d="M4707 832 c-61 -8 -123 -102 -143 -217 -2 -17 -9 -57 -15 -90 -6 -33
-13 -69 -14 -80 -2 -11 -16 -90 -31 -175 -24 -139 -33 -244 -23 -254 8 -8 118
-15 123 -8 2 4 8 46 12 92 3 47 8 92 10 100 1 8 3 23 3 32 1 14 9 18 41 16
l41 -1 -3 -114 c-3 -125 -8 -116 70 -128 31 -5 42 -3 43 7 0 7 2 22 4 33 3 11
9 56 15 100 6 44 13 91 15 105 3 14 7 50 10 80 3 30 7 66 10 80 22 110 22 301
0 353 -22 52 -88 80 -168 69z m49 -272 c-28 -148 -25 -140 -58 -140 l-31 0 7
48 c4 26 8 56 10 67 3 11 5 26 5 33 1 6 11 22 23 34 20 20 21 21 35 2 7 -10
11 -30 9 -44z"/>
</g>
</svg>
